<?xml version="1.0" encoding="UTF-8"?>
<svg width="13px" height="17px" viewBox="0 0 13 17" version="1.1" xmlns="http://www.w3.org/2000/svg" xmlns:xlink="http://www.w3.org/1999/xlink">
    <title>deluge</title>
    <defs>
        <radialGradient cx="50.0000036%" cy="49.9998887%" fx="50.0000036%" fy="49.9998887%" r="108.674021%" gradientTransform="translate(0.500000,0.499999),scale(0.460092,1.000000),translate(-0.500000,-0.499999)" id="radialGradient-1">
            <stop stop-color="#000000" offset="0%"></stop>
            <stop stop-color="#000000" stop-opacity="0" offset="100%"></stop>
        </radialGradient>
        <radialGradient cx="24.065673%" cy="77.0008284%" fx="24.065673%" fy="77.0008284%" r="108.712376%" gradientTransform="translate(0.240657,0.770008),scale(1.000000,0.762615),rotate(-45.946533),translate(-0.240657,-0.770008)" id="radialGradient-2">
            <stop stop-color="#D3E9FF" offset="0%"></stop>
            <stop stop-color="#D3E9FF" offset="15.517241%"></stop>
            <stop stop-color="#4074AE" offset="75%"></stop>
            <stop stop-color="#36486C" offset="100%"></stop>
        </radialGradient>
        <radialGradient cx="42.5253127%" cy="18.8239735%" fx="42.5253127%" fy="18.8239735%" r="87.3489792%" gradientTransform="translate(0.425253,0.188240),scale(0.787742,1.000000),rotate(55.948641),translate(-0.425253,-0.188240)" id="radialGradient-3">
            <stop stop-color="#FFFFFF" offset="0%"></stop>
            <stop stop-color="#FFFFFF" stop-opacity="0" offset="100%"></stop>
        </radialGradient>
        <radialGradient cx="53.7054868%" cy="48.4701741%" fx="53.7054868%" fy="48.4701741%" r="36.2775233%" gradientTransform="translate(0.537055,0.484702),scale(1.000000,0.877310),rotate(-36.495978),translate(-0.537055,-0.484702)" id="radialGradient-4">
            <stop stop-color="#EEEEEC" offset="0%"></stop>
            <stop stop-color="#EEEEEC" stop-opacity="0" offset="100%"></stop>
        </radialGradient>
        <radialGradient cx="66.2275965%" cy="46.3800497%" fx="66.2275965%" fy="46.3800497%" r="44.9357653%" gradientTransform="translate(0.662276,0.463800),scale(1.000000,0.910273),rotate(-74.175401),translate(-0.662276,-0.463800)" id="radialGradient-5">
            <stop stop-color="#EEEEEC" offset="0%"></stop>
            <stop stop-color="#EEEEEC" stop-opacity="0" offset="100%"></stop>
        </radialGradient>
        <radialGradient cx="49.9999967%" cy="50%" fx="49.9999967%" fy="50%" r="53.949772%" gradientTransform="translate(0.500000,0.500000),scale(0.926788,1.000000),translate(-0.500000,-0.500000)" id="radialGradient-6">
            <stop stop-color="#FFFFFF" offset="0%"></stop>
            <stop stop-color="#FFFFFF" stop-opacity="0" offset="100%"></stop>
        </radialGradient>
    </defs>
    <g id="Page-1" stroke="none" stroke-width="1" fill="none" fill-rule="evenodd">
        <g id="deluge" transform="translate(0.646702, 0.956134)">
            <path d="M12.1711231,12.087902 C12.1715556,13.0881492 11.0117488,14.0125009 9.12869187,14.5126819 C7.24563491,15.012863 4.92548815,15.012863 3.04243119,14.5126819 C1.15937423,14.0125009 -0.000432578045,13.0881492 0,12.087902 C-0.000432578044,11.0876549 1.15937423,10.1633032 3.04243119,9.66312215 C4.92548815,9.1629411 7.24563491,9.1629411 9.12869187,9.66312215 C11.0117488,10.1633032 12.1715556,11.0876549 12.1711231,12.087902 L12.1711231,12.087902 Z" id="path4112" fill="url(#radialGradient-1)" fill-rule="nonzero"></path>
            <path d="M5.81711428,0 L10.0735842,5.50374104 C13.1475791,9.18554228 11.3982452,13.6612009 6.7172926,14.0034959 C0.131322111,14.1885895 0.274039927,8.39958003 1.78320606,5.61268662 L5.81711428,0 Z" id="path2069" fill="url(#radialGradient-2)"></path>
            <path d="M9.36801485,8.00797336 C7.41630823,3.83896036 3.78794044,5.32290779 3.69693467,8.264501 C3.57620907,12.166728 9.25276642,11.6554837 9.87795557,12.8806204 C7.36825816,14.8539836 2.96528433,14.0753559 1.69004179,12.3230878 C0.416749062,10.5734986 0.506052959,7.84491109 1.63343562,5.92371247 C5.88569473,0.00716008923 10.8425506,7.4485989 9.36801485,8.00797336 Z" id="path2969" fill="#1B4075"></path>
            <path d="M5.83426337,0.822579165 L9.66878458,5.78490368 C12.4388084,9.10149782 10.7376998,13.1811742 6.51094302,13.5291378 C0.554817662,13.6902591 0.566190402,8.63625226 2.07492528,6.16083586 L5.83426337,0.822579165 Z" id="path2071" stroke-opacity="0.36612022" stroke="#FFFFFF" stroke-width="1.1000706"></path>
            <path d="M5.81642594,0.00279256579 L9.24592847,4.43642381 C11.7639686,7.45131571 11.0645295,6.14510829 7.22227185,6.46141832 C6.17964367,3.25815225 3.97171845,3.46675126 2.50445115,4.67980236 L5.81642594,0.00279256579 Z" id="path3945" fill="url(#radialGradient-3)" opacity="0.46"></path>
            <path d="M9.38338506,8.01768137 C7.43167844,3.84866837 4.16099399,5.41210098 4.06998822,8.35369419 C3.94926262,12.2559212 9.26813663,11.6651917 9.89332578,12.8903284 C7.38362837,14.8636916 2.98065454,14.0850639 1.705412,12.3327958 C0.432118986,10.5832066 0.521423137,7.8546191 1.64880583,5.93342048 C5.90106494,0.0168680602 10.8579208,7.45830691 9.38338506,8.01768137 Z" id="path3868" fill="url(#radialGradient-4)"></path>
            <path d="M9.37101526,8.00759724 C7.28294957,3.77040471 3.19189183,5.17229163 3.10088606,8.11388483 C2.98016046,12.0161118 8.65671781,11.5048676 9.28190696,12.7300042 C6.77220956,14.7033674 2.36923572,13.9247397 1.09399309,12.1724716 C-0.179299513,10.4228825 -0.0899956802,7.69429493 1.03738692,5.77309631 C5.29969305,-0.152603375 10.9325924,7.21852013 9.37101526,8.00759724 Z" id="path4874" fill="url(#radialGradient-5)"></path>
            <path d="M11.1774767,12.170785 C11.1774767,13.6353488 9.8964248,14.8226123 8.3161672,14.8226123 C6.73590959,14.8226123 5.45485769,13.6353488 5.45485769,12.170785 C5.45485769,10.7062213 6.73590959,9.5189578 8.3161672,9.5189578 C9.8964248,9.5189578 11.1774767,10.7062213 11.1774767,12.170785 Z" id="path4941" fill="url(#radialGradient-6)" opacity="0.21999996" transform="translate(8.316167, 12.170785) scale(-1, 1) rotate(58.198986) translate(-8.316167, -12.170785) "></path>
        </g>
    </g>
</svg>