<?xml version="1.0" encoding="UTF-8"?>
<svg width="16px" height="16px" viewBox="0 0 16 16" version="1.1" xmlns="http://www.w3.org/2000/svg" xmlns:xlink="http://www.w3.org/1999/xlink">
    <title>ruTorrent</title>
    <g id="Page-1" stroke="none" stroke-width="1" fill="none" fill-rule="evenodd">
        <g id="ruTorrent" fill-rule="nonzero">
            <rect id="Rectangle" fill="#0707FF" x="0" y="0" width="16" height="16"></rect>
            <path d="M2.5625,8.125 L2.5625,6.5 C2.5625,3.84375 0.90625,5.34375 0.90625,3.6875 C0.90625,1.5625 7.25,0.96875 7.5,0.96875 C8.53125,0.96875 8.53125,1.21875 8.65625,2.15625 C8.65625,2.46875 8.65625,3.09375 9.09375,3.09375 C9.71875,3.09375 10.125,0.96875 12.46875,0.96875 C14.28125,0.96875 15.46875,2.3125 15.46875,4.09375 C15.46875,5.90625 13.9375,7.34375 12.15625,7.34375 C10.40625,7.34375 9.90625,5.8125 9.21875,5.8125 C8.46875,5.8125 8.625,7.625 8.625,8.09375 C8.625,8.90625 8.6875,10.03125 8.8125,11.0625 C8.96875,12.25 11.03125,11.5 11.03125,13.125 C11.03125,14.8125 8.65625,14.9687836 5.6875,14.9687836 C4.46875,14.9687836 0.75,15 0.75,13.15625 C0.75,12.03125 1.96875,12.03125 2.28125,11.09375 C2.46875,10.4375 2.5625,8.875 2.5625,8.125 Z" id="Path" fill="#FFFFFF"></path>
        </g>
    </g>
</svg>