<?xml version="1.0" encoding="UTF-8"?>
<svg width="16px" height="16px" viewBox="0 0 16 16" version="1.1" xmlns="http://www.w3.org/2000/svg" xmlns:xlink="http://www.w3.org/1999/xlink">
    <title>rutorrent</title>
    <g id="rutorrent" stroke="none" stroke-width="1" fill="none" fill-rule="evenodd">
        <rect id="Rectangle" fill="#0707FF" fill-rule="nonzero" x="0" y="0" width="16" height="16"></rect>
        <path d="M1.8125,8.125 L1.8125,6.5 C1.8125,3.84375 0.15625,5.34375 0.15625,3.6875 C0.15625,1.5625 6.5,0.96875 6.75,0.96875 C7.78125,0.96875 7.78125,1.21875 7.90625,2.15625 C7.90625,2.46875 7.90625,3.09375 8.34375,3.09375 C8.96875,3.09375 9.375,0.96875 11.71875,0.96875 C13.53125,0.96875 14.71875,2.3125 14.71875,4.09375 C14.71875,5.90625 13.1875,7.34375 11.40625,7.34375 C9.65625,7.34375 9.15625,5.8125 8.46875,5.8125 C7.71875,5.8125 7.875,7.625 7.875,8.09375 C7.875,8.90625 7.9375,10.03125 8.0625,11.0625 C8.21875,12.25 10.28125,11.5 10.28125,13.125 C10.28125,14.8125 7.90625,14.9687836 4.9375,14.9687836 C3.71875,14.9687836 0,15 0,13.15625 C0,12.03125 1.21875,12.03125 1.53125,11.09375 C1.71875,10.4375 1.8125,8.875 1.8125,8.125 Z" id="Path" fill="#FFFFFF" fill-rule="nonzero"></path>
        <path d="M10.5304829,11.6729997 C10.4754251,11.5825922 10.4996994,11.459815 10.5653454,11.3767759 C10.6309914,11.2937368 10.7299048,11.2439703 10.8295831,11.2083454 C10.9565481,11.1629683 11.0894003,11.1364355 11.2222651,11.1134976 C11.6303051,11.0430532 12.0439483,11.0050906 12.4579942,11.0000871 C12.5558638,10.9989044 12.6711914,11.008767 12.7224722,11.0921344 C12.7504026,11.1375409 12.7512336,11.1939579 12.7512294,11.247267 C12.751174,11.9491872 12.7511185,12.6511074 12.7510631,13.3530277 C12.7510491,13.5307883 12.7552232,13.7220213 12.8603954,13.8653309 C13.01269,14.0728503 13.3679333,14.0802435 13.52873,13.8792402 C13.6325071,13.7495141 13.6504329,13.5729027 13.6597649,13.4070369 C13.6829603,12.9947656 13.6786822,12.5809508 13.6469684,12.1692471 C13.6417984,12.1021297 13.6352625,12.0328662 13.6030603,11.973752 C13.5112161,11.8051515 13.2435635,11.7710947 13.193629,11.5857086 C13.1670215,11.486926 13.2195795,11.3801456 13.2982811,11.314785 C13.3769828,11.2494245 13.4775191,11.2174393 13.5760682,11.1899795 C14.0506439,11.0577433 14.5448938,10.9963496 15.0373995,11.0084587 C15.1451041,11.0111069 15.2624515,11.0211729 15.3411148,11.0947893 C15.4341966,11.181899 15.4400711,11.3250869 15.4395362,11.4525703 C15.4364251,12.1940898 15.433314,12.9356094 15.4302029,13.6771289 C15.4298417,13.7632237 15.4311022,13.8550303 15.4786894,13.9267792 C15.5547969,14.0415293 15.7218923,14.0649725 15.8030371,14.1762175 C15.8808634,14.282913 15.8506585,14.4404208 15.7666396,14.5423113 C15.6826207,14.6442019 15.5574551,14.701943 15.4343253,14.7496913 C14.9746851,14.9279342 14.4791522,15.0130438 13.9863799,14.9983813 C13.8846363,14.9953539 13.7639021,14.9758371 13.7208651,14.8835944 C13.6807046,14.7975168 13.7295033,14.683774 13.6739794,14.606707 C13.6336998,14.5507989 13.5519265,14.5396942 13.4862335,14.5604928 C13.4205405,14.5812913 13.3662128,14.6268744 13.3110194,14.6681277 C12.9084031,14.9690563 12.3658323,15.0738187 11.8801248,14.9444123 C11.7711167,14.9153694 11.6643911,14.874921 11.5687047,14.8151683 C11.3218766,14.6610329 11.1675436,14.3888562 11.095009,14.1070396 C11.0224745,13.8252231 11.0225083,13.5305129 11.022986,13.2395118 C11.0233679,13.0069095 11.0237497,12.7743071 11.0241315,12.5417048 C11.0245341,12.2964481 11.0064732,12.0127199 10.8081599,11.8684187 C10.7156284,11.8010888 10.5900046,11.7707369 10.5304829,11.6729997 L10.5304829,11.6729997 Z" id="Path" fill="#FFFFFF" fill-rule="nonzero"></path>
    </g>
</svg>