<?xml version="1.0" encoding="iso-8859-1"?>
<!-- Generator: Adobe Illustrator 19.0.0, SVG Export Plug-In . SVG Version: 6.00 Build 0)  -->
<svg version="1.1" id="Capa_1" xmlns="http://www.w3.org/2000/svg" xmlns:xlink="http://www.w3.org/1999/xlink" x="0px" y="0px"
	 width="16" height="16" viewBox="0 0 512 512" style="enable-background:new 0 0 512 512;" xml:space="preserve">
<g>
	<path style="fill:#4CAF50;" d="M487.456,332.864c-16.608,0.16-29.792-1.152-39.232-3.84c-28.544-8.16-37.376-19.84-37.376-19.84
		c-2.016-3.008-5.536-4.64-9.152-4.128c-3.584,0.48-6.592,2.944-7.744,6.368c-0.128,0.384-13.568,39.264-47.392,56.16
		c-35.104,17.568-98.752,13.28-99.392,13.248c-3.456-0.32-6.528,1.28-8.416,4c-1.92,2.72-2.272,6.24-0.928,9.28l48.832,110.656
		c1.536,3.488,4.96,5.664,8.672,5.664c0.48,0,0.992-0.032,1.504-0.128c91.264-14.656,167.744-77.76,199.616-164.704
		c1.088-2.912,0.64-6.176-1.152-8.736C493.504,334.368,490.368,332.672,487.456,332.864z"/>
	<path style="fill:#4CAF50;" d="M256,1.568c-141.152,0-256,114.848-256,256C0,369.472,74.72,470.24,181.728,502.624
		c0.896,0.288,1.824,0.416,2.752,0.416c2.624,0,5.152-1.088,6.976-3.072c2.464-2.688,3.168-6.528,1.824-9.92
		c-100.896-254.4-119.168-313.6-122.048-327.232c13.6-7.168,59.168-17.088,71.264-15.104c3.552,5.088,10.912,23.072,17.44,39.072
		c24.8,60.672,62.272,152.384,114.336,156.096c36.96,2.656,70.208-11.36,89.248-37.408c11.552-15.84,15.488-33.728,10.304-46.688
		c-7.904-19.712-44.288-102.752-57.216-132.224l57.024-14.272c12.448,29.6,57.6,135.232,78.912,160.832
		c9.312,11.136,25.312,17.984,47.552,20.288c5.28,0.448,9.856-3.232,10.4-8.416c1.024-9.024,1.504-18.272,1.504-27.424
		C512,116.416,397.152,1.568,256,1.568z"/>
</g>
<g>
</g>
<g>
</g>
<g>
</g>
<g>
</g>
<g>
</g>
<g>
</g>
<g>
</g>
<g>
</g>
<g>
</g>
<g>
</g>
<g>
</g>
<g>
</g>
<g>
</g>
<g>
</g>
<g>
</g>
</svg>
